<?xml version="1.0" encoding="iso-8859-1"?>
<!-- Generator: Adobe Illustrator 15.0.0, SVG Export Plug-In . SVG Version: 6.00 Build 0)  -->
<!DOCTYPE svg PUBLIC "-//W3C//DTD SVG 1.1//EN" "http://www.w3.org/Graphics/SVG/1.1/DTD/svg11.dtd">
<svg xmlns="http://www.w3.org/2000/svg" viewBox="0 0 249.45 249.45"><path d="M124.448 2.127C56.823 2.127 2 56.95 2 124.575c0 67.626 54.822 122.45 122.448 122.45 67.627 0 122.448-54.823 122.448-122.45 0-67.626-54.82-122.448-122.448-122.448zm.22 236.15c-62.918 0-113.92-51.006-113.92-113.922 0-62.915 51.003-113.92 113.92-113.92 62.916 0 113.92 51.004 113.92 113.92 0 62.916-51.004 113.922-113.92 113.922z" fill-rule="evenodd" clip-rule="evenodd" fill="#888"/><g fill-rule="evenodd" clip-rule="evenodd" fill="#888"><path d="M122.645 135.128c29.334 0 53.115-23.78 53.115-53.115 0-29.334-23.78-53.116-53.115-53.116S69.528 52.68 69.528 82.013c0 29.335 23.78 53.115 53.117 53.115zm-.188-97.598c24.67 0 44.67 20 44.67 44.67s-20 44.67-44.67 44.67-44.67-20-44.67-44.67 20-44.67 44.67-44.67zM125.515 135.315c-40.012.002-72.448 17.9-72.448 39.98s32.436 39.98 72.448 39.98c40.013 0 72.448-17.9 72.448-39.98s-32.436-39.98-72.448-39.98zm-.257 73.742c-33.65 0-60.93-15.053-60.93-33.62 0-18.57 27.28-33.622 60.93-33.622s60.928 15.053 60.928 33.622c0 18.567-27.278 33.62-60.928 33.62z"/></g></svg>