<?xml version="1.0" encoding="iso-8859-1"?>
<!-- Generator: Adobe Illustrator 15.0.0, SVG Export Plug-In . SVG Version: 6.00 Build 0)  -->
<!DOCTYPE svg PUBLIC "-//W3C//DTD SVG 1.1//EN" "http://www.w3.org/Graphics/SVG/1.1/DTD/svg11.dtd">
<svg xmlns="http://www.w3.org/2000/svg" viewBox="0 0 249.45 249.45"><circle cx="124.812" cy="124.812" r="122.638" fill-rule="evenodd" clip-rule="evenodd" fill="#5677fc"/><path d="M186.334 88.935l-48.46-46.152s-14.997-12.403-30.574.576L81.338 67.876 57.688 91.24s-19.255 16.876 9.228 15.58h1.154l.007 1.327.282 56.938s.863 17.307 19.9 20.19l69.806.29s16.44-2.31 19.902-19.614c.05-17.513-.27-58.37-.27-58.37s29.376 1.787 8.636-18.645zm-64.613 87.69l-.285-30.866s1.442-5.192 7.497-7.214l10.442-.115s5.875 1.373 7.732 7.04l.574 30.864-25.96.29zm33.75.286v-32.017c-2.018-10.96-12.976-14.478-12.976-14.478l-15.397.172c-14.71 4.038-13.452 14.883-13.452 14.883l.29 31.73H89.127c-12.98-1.73-12.98-11.25-12.98-11.25l.865-58.844 92.21.288.094 6.06.288 51.92c-4.326 12.4-14.134 11.537-14.134 11.537zm23.076-78.746H67.206c-6.348.866-2.02-3.172-2.02-3.172l48.458-45.864c7.5-6.923 17.02-.577 17.02-.577l48.46 46.44c3.748 3.174-.578 3.174-.578 3.174z" fill="#FFF"/></svg>