<?xml version="1.0" encoding="iso-8859-1"?>
<!-- Generator: Adobe Illustrator 15.0.0, SVG Export Plug-In . SVG Version: 6.00 Build 0)  -->
<!DOCTYPE svg PUBLIC "-//W3C//DTD SVG 1.1//EN" "http://www.w3.org/Graphics/SVG/1.1/DTD/svg11.dtd">
<svg xmlns="http://www.w3.org/2000/svg" viewBox="0 0 249.45 249.45"><ellipse cx="125.647" cy="124.815" rx="122.802" ry="122.635" fill-rule="evenodd" clip-rule="evenodd" fill="#5677fc"/><g fill-rule="evenodd" clip-rule="evenodd" fill="#FFF"><path d="M124.645 134.128c29.334 0 53.115-23.78 53.115-53.115 0-29.334-23.78-53.116-53.115-53.116S71.528 51.68 71.528 81.013c0 29.335 23.78 53.115 53.117 53.115zm-.188-97.598c24.67 0 44.67 20 44.67 44.67s-20 44.67-44.67 44.67-44.67-20-44.67-44.67 20-44.67 44.67-44.67zM127.515 134.315c-40.012.002-72.448 17.9-72.448 39.98s32.436 39.98 72.448 39.98c40.013 0 72.448-17.9 72.448-39.98s-32.436-39.98-72.448-39.98zm-.257 73.742c-33.65 0-60.928-15.053-60.928-33.62 0-18.57 27.28-33.622 60.928-33.622 33.65 0 60.93 15.053 60.93 33.622 0 18.567-27.28 33.62-60.93 33.62z"/></g></svg>