<?xml version="1.0" encoding="iso-8859-1"?>
<!-- Generator: Adobe Illustrator 15.0.0, SVG Export Plug-In . SVG Version: 6.00 Build 0)  -->
<!DOCTYPE svg PUBLIC "-//W3C//DTD SVG 1.1//EN" "http://www.w3.org/Graphics/SVG/1.1/DTD/svg11.dtd">
<svg xmlns="http://www.w3.org/2000/svg" viewBox="0 0 249.45 249.45"><path d="M124.638 2C56.908 2 2 56.907 2 124.637c0 67.732 54.907 122.64 122.638 122.64s122.64-54.908 122.64-122.64C247.277 56.907 192.367 2 124.637 2zm.218 236.518c-63.013 0-114.096-51.084-114.096-114.1 0-63.012 51.083-114.095 114.096-114.095 63.015 0 114.1 51.083 114.1 114.096 0 63.014-51.085 114.098-114.1 114.098z" fill-rule="evenodd" clip-rule="evenodd" fill="#888"/><path d="M186.16 86.76L137.7 40.61s-14.997-12.404-30.574.575l-25.96 24.52-23.653 23.362s-19.254 16.875 9.23 15.578h1.153l.007 1.328.282 56.94s.864 17.306 19.902 20.188l69.805.292s16.44-2.31 19.902-19.615c.05-17.514-.27-58.37-.27-58.37s29.376 1.787 8.636-18.646zm-64.613 87.69l-.286-30.864s1.443-5.19 7.498-7.213l10.443-.115s5.876 1.37 7.733 7.04l.574 30.862-25.96.29zm33.75.288V142.72c-2.018-10.96-12.977-14.48-12.977-14.48l-15.396.173c-14.71 4.04-13.453 14.883-13.453 14.883l.29 31.73H88.955c-12.98-1.73-12.98-11.25-12.98-11.25l.865-58.843 92.21.288.093 6.06.29 51.92c-4.328 12.402-14.136 11.538-14.136 11.538zm23.076-78.747H67.033c-6.348.867-2.02-3.17-2.02-3.17l48.458-45.865c7.5-6.923 17.02-.577 17.02-.577l48.46 46.44c3.75 3.173-.577 3.173-.577 3.173z" fill="#888"/></svg>