<?xml version="1.0" encoding="iso-8859-1"?>
<!-- Generator: Adobe Illustrator 15.0.0, SVG Export Plug-In . SVG Version: 6.00 Build 0)  -->
<!DOCTYPE svg PUBLIC "-//W3C//DTD SVG 1.1//EN" "http://www.w3.org/Graphics/SVG/1.1/DTD/svg11.dtd">
<svg xmlns="http://www.w3.org/2000/svg" width="1024" height="1024"><g fill="#5677fc"><path d="M391.577 197.476H643.72v15.961H391.577zM240.389 699.172l26.316 83.714 65.318-11.793-72.465-71.921zM502.344 466.223l30.641-8.302V245.969h-30.641z"/><path d="M511.543 7.314C233.065 7.314 7.314 233.065 7.314 511.543s225.751 504.229 504.229 504.229 504.229-225.751 504.229-504.229S790.021 7.314 511.543 7.314zM370.871 783.271c-1.443 4.585-5.289 8.014-10.002 8.844l-100.797 18.174c-.74.097-1.508.16-2.278.16-5.544 0-10.576-3.559-12.275-9.005l-34.998-111.28c-1.219-3.912-.514-8.175 1.889-11.477 2.436-3.302 6.285-5.252 10.386-5.252h42.02c3.396 0 6.666 1.345 9.069 3.745l93.78 93.11c3.399 3.399 4.648 8.398 3.206 12.981zm470.124-98.14L421.287 796.218c-.963.32-1.923.643-3.207.643-3.204 0-6.376-1.25-8.94-3.815L223.692 613.339c-1.889-1.607-3.172-3.816-3.494-6.06-1.923-7.016 1.571-15.927 8.301-17.853l203.941-53.941 24.584-6.7 114.261-30.352-5.738-22.338-114.26 30.319 5.737 22.342-24.584 6.696-9.583-35.096c-1.602-6.697 2.243-13.715 9.262-15.641l44.36-11.792V239.269h-97.662c-7.338 0-13.076-5.738-13.076-12.755v-42.148c0-7.018 5.738-12.755 13.076-12.755H656.83c7.018 0 12.755 5.737 12.724 12.755v42.148c0 7.017-5.735 12.755-12.757 12.755h-97.982v211.986l12.471-3.203c3.205-.963 6.698-.643 9.901 1.28 2.856 1.602 5.1 4.457 5.737 7.66l9.579 35.067.008-.002 180.637-47.885c3.207-.962 6.698-.32 9.587 1.281 3.172 1.604 5.095 4.457 6.053 7.66l57.15 216.409c1.888 6.7-2.244 14.072-8.943 15.609z"/><path d="M590.453 520.166l-139.166 37.02h-.642l-194.71 51.695 165.96 160.542 399.964-105.639-50.735-191.504z"/></g></svg>