<?xml version="1.0" encoding="iso-8859-1"?>
<!-- Generator: Adobe Illustrator 15.0.0, SVG Export Plug-In . SVG Version: 6.00 Build 0)  -->
<!DOCTYPE svg PUBLIC "-//W3C//DTD SVG 1.1//EN" "http://www.w3.org/Graphics/SVG/1.1/DTD/svg11.dtd">
<svg xmlns="http://www.w3.org/2000/svg" width="1024" height="1024"><g fill="#888"><path d="M514.771 11.542c-278.478 0-504.229 225.751-504.229 504.229C10.543 794.248 236.294 1020 514.771 1020S1019 794.248 1019 515.771c0-278.478-225.751-504.229-504.229-504.229zm.901 972.44c-259.084 0-469.113-210.027-469.113-469.111S256.588 45.758 515.672 45.758s469.112 210.029 469.112 469.113-210.028 469.111-469.112 469.111z"/><path d="M853.166 673.75l-57.15-216.409c-.958-3.203-2.881-6.056-6.053-7.66-2.889-1.602-6.38-2.243-9.587-1.281l-180.637 47.885-.008.002-9.579-35.067c-.638-3.203-2.881-6.058-5.737-7.66-3.203-1.923-6.696-2.243-9.901-1.28l-12.471 3.203V243.497h97.982c7.021 0 12.757-5.738 12.757-12.755v-42.148c.031-7.018-5.706-12.755-12.724-12.755H382.046c-7.338 0-13.076 5.737-13.076 12.755v42.148c0 7.017 5.738 12.755 13.076 12.755h97.662v233.654l-44.36 11.792c-7.019 1.926-10.864 8.944-9.262 15.641l9.583 35.096 24.584-6.695-5.737-22.343 114.26-30.319 5.738 22.338-114.261 30.353-24.584 6.699-203.941 53.941c-6.73 1.926-10.225 10.838-8.301 17.854.322 2.242 1.605 4.451 3.494 6.059l185.448 179.707c2.564 2.564 5.736 3.814 8.94 3.814 1.284 0 2.244-.322 3.207-.643l419.708-111.086c6.699-1.537 10.831-8.91 8.942-15.609zM394.805 217.665v-15.961h252.143v15.961H394.805zm141.409 244.484l-30.641 8.301V250.197h30.641v211.952zM425.124 773.65l-165.96-160.541 194.71-51.695h.642l139.166-37.02 180.671-47.886 50.735 191.503L425.124 773.65zM277.112 681.408c-2.403-2.4-5.673-3.744-9.069-3.744h-42.02c-4.102 0-7.951 1.949-10.386 5.252-2.403 3.301-3.108 7.564-1.889 11.477l34.998 111.279c1.7 5.447 6.731 9.006 12.275 9.006.77 0 1.538-.064 2.278-.16l100.797-18.174c4.713-.83 8.559-4.26 10.002-8.844 1.442-4.584.193-9.582-3.207-12.98l-93.779-93.112zm-7.179 105.705L243.618 703.4h19.168l72.466 71.92-65.319 11.793z"/></g></svg>